<mxfile host="app.diagrams.net" modified="2024-06-04T23:04:54.661Z" agent="Mozilla/5.0 (Windows NT 10.0; Win64; x64) AppleWebKit/537.36 (KHTML, like Gecko) Chrome/125.0.0.0 Safari/537.36 Edg/125.0.0.0" etag="r0kkp7KZqAh8o4hrZ9be" version="24.4.13" type="device">
  <diagram name="Page-1" id="DtJfK-BRY4fs082FjKUQ">
    <mxGraphModel dx="825" dy="519" grid="1" gridSize="10" guides="1" tooltips="1" connect="1" arrows="1" fold="1" page="1" pageScale="1" pageWidth="850" pageHeight="1100" math="0" shadow="0">
      <root>
        <mxCell id="0" />
        <mxCell id="1" parent="0" />
        <mxCell id="sY2vslgGeW6ELoFz1wTO-1" value="" style="strokeWidth=1;shadow=0;dashed=0;align=center;html=1;shape=mxgraph.mockup.forms.rrect;rSize=0;strokeColor=#999999;" vertex="1" parent="1">
          <mxGeometry x="300" y="130" width="500" height="30" as="geometry" />
        </mxCell>
        <mxCell id="sY2vslgGeW6ELoFz1wTO-2" value="Home" style="strokeColor=inherit;fillColor=inherit;gradientColor=inherit;strokeWidth=1;shadow=0;dashed=0;align=center;html=1;shape=mxgraph.mockup.forms.rrect;rSize=0;fontSize=17;fontColor=#666666;whiteSpace=wrap;" vertex="1" parent="sY2vslgGeW6ELoFz1wTO-1">
          <mxGeometry width="100" height="30" as="geometry" />
        </mxCell>
        <mxCell id="sY2vslgGeW6ELoFz1wTO-3" value="About Us" style="strokeColor=inherit;fillColor=inherit;gradientColor=inherit;strokeWidth=1;shadow=0;dashed=0;align=center;html=1;shape=mxgraph.mockup.forms.rrect;rSize=0;fontSize=17;fontColor=#666666;whiteSpace=wrap;" vertex="1" parent="sY2vslgGeW6ELoFz1wTO-1">
          <mxGeometry x="100" width="100" height="30" as="geometry" />
        </mxCell>
        <mxCell id="sY2vslgGeW6ELoFz1wTO-4" value="Trips" style="strokeColor=inherit;fillColor=inherit;gradientColor=inherit;strokeWidth=1;shadow=0;dashed=0;align=center;html=1;shape=mxgraph.mockup.forms.rrect;rSize=0;fontSize=17;fontColor=#666666;whiteSpace=wrap;" vertex="1" parent="sY2vslgGeW6ELoFz1wTO-1">
          <mxGeometry x="200" width="110" height="30" as="geometry" />
        </mxCell>
        <mxCell id="sY2vslgGeW6ELoFz1wTO-5" value="Contact Us" style="strokeColor=inherit;fillColor=inherit;gradientColor=inherit;strokeWidth=1;shadow=0;dashed=0;align=center;html=1;shape=mxgraph.mockup.forms.rrect;rSize=0;fontSize=17;fontColor=#666666;whiteSpace=wrap;" vertex="1" parent="sY2vslgGeW6ELoFz1wTO-1">
          <mxGeometry x="310" width="190" height="30" as="geometry" />
        </mxCell>
        <mxCell id="sY2vslgGeW6ELoFz1wTO-8" value="" style="sketch=0;outlineConnect=0;fontColor=#232F3E;gradientColor=none;fillColor=#ED7100;strokeColor=none;dashed=0;verticalLabelPosition=bottom;verticalAlign=top;align=center;html=1;fontSize=12;fontStyle=0;aspect=fixed;pointerEvents=1;shape=mxgraph.aws4.container_registry_image;" vertex="1" parent="1">
          <mxGeometry x="40" y="130" width="48" height="48" as="geometry" />
        </mxCell>
        <mxCell id="sY2vslgGeW6ELoFz1wTO-9" value="&lt;h1 style=&quot;margin-top: 0px;&quot;&gt;Heading&lt;/h1&gt;&lt;p&gt;Lorem ipsum dolor sit amet, consectetur adipisicing elit, sed do eiusmod tempor incididunt ut labore et dolore magna aliqua.&lt;/p&gt;" style="text;html=1;whiteSpace=wrap;overflow=hidden;rounded=0;" vertex="1" parent="1">
          <mxGeometry x="30" y="220" width="590" height="120" as="geometry" />
        </mxCell>
        <mxCell id="sY2vslgGeW6ELoFz1wTO-10" value="Primary" style="rounded=1;fillColor=#0057D8;strokeColor=none;html=1;whiteSpace=wrap;fontColor=#ffffff;align=center;verticalAlign=middle;fontStyle=0;fontSize=12;sketch=0;" vertex="1" parent="1">
          <mxGeometry x="30" y="330" width="130" height="33" as="geometry" />
        </mxCell>
        <mxCell id="sY2vslgGeW6ELoFz1wTO-11" value="" style="verticalLabelPosition=bottom;shadow=0;dashed=0;align=center;html=1;verticalAlign=top;strokeWidth=1;shape=mxgraph.mockup.markup.line;strokeColor=#999999;" vertex="1" parent="1">
          <mxGeometry x="30" y="380" width="770" height="20" as="geometry" />
        </mxCell>
        <mxCell id="sY2vslgGeW6ELoFz1wTO-12" value="Newsletter" style="text;html=1;align=center;verticalAlign=middle;whiteSpace=wrap;rounded=0;" vertex="1" parent="1">
          <mxGeometry x="265" y="450" width="60" height="30" as="geometry" />
        </mxCell>
        <mxCell id="sY2vslgGeW6ELoFz1wTO-13" value="" style="html=1;shadow=0;dashed=0;shape=mxgraph.bootstrap.rrect;rSize=5;strokeColor=#CED4DA;strokeWidth=1;fillColor=#E9ECEF;fontColor=#505050;whiteSpace=wrap;align=left;verticalAlign=middle;spacingLeft=10;fontSize=14;" vertex="1" parent="1">
          <mxGeometry x="265" y="500" width="250" height="40" as="geometry" />
        </mxCell>
        <mxCell id="sY2vslgGeW6ELoFz1wTO-14" value="Primary" style="rounded=1;fillColor=#0057D8;strokeColor=none;html=1;whiteSpace=wrap;fontColor=#ffffff;align=center;verticalAlign=middle;fontStyle=0;fontSize=12;sketch=0;" vertex="1" parent="1">
          <mxGeometry x="265" y="560" width="255" height="33" as="geometry" />
        </mxCell>
        <mxCell id="sY2vslgGeW6ELoFz1wTO-15" value="" style="ellipse;whiteSpace=wrap;html=1;aspect=fixed;" vertex="1" parent="1">
          <mxGeometry x="88" y="680" width="50" height="50" as="geometry" />
        </mxCell>
        <mxCell id="sY2vslgGeW6ELoFz1wTO-17" value="&lt;h1 style=&quot;margin-top: 0px;&quot;&gt;Heading&lt;/h1&gt;&lt;p&gt;Lorem ipsum dolor sit amet, consectetur adipisicing elit, sed do eiusmod tempor incididunt ut labore et dolore magna aliqua.&lt;/p&gt;" style="text;html=1;whiteSpace=wrap;overflow=hidden;rounded=0;" vertex="1" parent="1">
          <mxGeometry x="88" y="740" width="295" height="120" as="geometry" />
        </mxCell>
        <mxCell id="sY2vslgGeW6ELoFz1wTO-18" value="" style="ellipse;whiteSpace=wrap;html=1;aspect=fixed;" vertex="1" parent="1">
          <mxGeometry x="490" y="680" width="50" height="50" as="geometry" />
        </mxCell>
        <mxCell id="sY2vslgGeW6ELoFz1wTO-19" value="&lt;h1 style=&quot;margin-top: 0px;&quot;&gt;Heading&lt;/h1&gt;&lt;p&gt;Lorem ipsum dolor sit amet, consectetur adipisicing elit, sed do eiusmod tempor incididunt ut labore et dolore magna aliqua.&lt;/p&gt;" style="text;html=1;whiteSpace=wrap;overflow=hidden;rounded=0;" vertex="1" parent="1">
          <mxGeometry x="490" y="740" width="295" height="120" as="geometry" />
        </mxCell>
        <mxCell id="sY2vslgGeW6ELoFz1wTO-20" value="" style="ellipse;whiteSpace=wrap;html=1;aspect=fixed;" vertex="1" parent="1">
          <mxGeometry x="750" y="970" width="60" height="60" as="geometry" />
        </mxCell>
        <mxCell id="sY2vslgGeW6ELoFz1wTO-21" value="" style="ellipse;whiteSpace=wrap;html=1;aspect=fixed;" vertex="1" parent="1">
          <mxGeometry x="660" y="970" width="60" height="60" as="geometry" />
        </mxCell>
        <mxCell id="sY2vslgGeW6ELoFz1wTO-22" value="" style="ellipse;whiteSpace=wrap;html=1;aspect=fixed;" vertex="1" parent="1">
          <mxGeometry x="580" y="970" width="60" height="60" as="geometry" />
        </mxCell>
        <mxCell id="sY2vslgGeW6ELoFz1wTO-23" value="Text" style="text;html=1;align=center;verticalAlign=middle;whiteSpace=wrap;rounded=0;" vertex="1" parent="1">
          <mxGeometry x="380" y="985" width="60" height="30" as="geometry" />
        </mxCell>
        <mxCell id="sY2vslgGeW6ELoFz1wTO-24" value="Text" style="text;html=1;align=center;verticalAlign=middle;whiteSpace=wrap;rounded=0;" vertex="1" parent="1">
          <mxGeometry x="110" y="985" width="60" height="30" as="geometry" />
        </mxCell>
      </root>
    </mxGraphModel>
  </diagram>
</mxfile>
